<svg xmlns="http://www.w3.org/2000/svg" width="720" height="111" viewBox="0 0 720 111"><path fill="#fff" d="M2 106L13 16C16 2 40 2 43 14L57 66L73 13C77 2 101 4 101 15L114 106H87L83 59L72 98C68 106 44 106 43 98L33 60L28 106 ZM126 55C128 21 197 19 199 55V80C198 116 126 120 126 80V55L154 60V78C155 90 171 90 172 78V60C172 47 154 47 154 60 ZM213 106V39C218 28 231 28 240 35C247 28 265 27 276 37C288 26 326 24 329 57V106H300V59C300 49 284 49 284 59V106H257V59C257 49 240 49 240 59V106 ZM339 55C341 21 410 19 412 55V80C411 116 339 120 339 80V55L367 60V78C368 90 384 90 385 78V60C385 47 367 47 367 60 ZM449 30V107H477V30H497C509 29 509 7 497 7H431C417 7 417 30 431 30 ZM556 77V60H537C524 60 515 68 514 73C512 81 512 86 513 92C515 98 519 104 526 107C530 109 557 109 560 104V108H582V53C581 34 550 22 523 34C514 39 512 52 525 55C533 57 546 43 556 55V82C556 90 540 93 539 83C539 80 540 76 556 78 ZM595 106V11C595 0 623 -1 624 11V106 ZM641 106V11C641 0 667 0 667 11V55L686 33C694 26 714 29 710 46L692 65L718 106H687L673 81L667 87V106Z"></path></svg>